<svg id="visual" viewBox="0 0 1440 900" width="1440" height="900" xmlns="http://www.w3.org/2000/svg" xmlns:xlink="http://www.w3.org/1999/xlink" version="1.1"><rect x="0" y="0" width="1440" height="900" fill="#001122"></rect><defs><linearGradient id="grad1_0" x1="37.5%" y1="100%" x2="100%" y2="0%"><stop offset="17.999999999999996%" stop-color="#001122" stop-opacity="1"></stop><stop offset="82%" stop-color="#001122" stop-opacity="1"></stop></linearGradient></defs><defs><linearGradient id="grad2_0" x1="0%" y1="100%" x2="62.5%" y2="0%"><stop offset="17.999999999999996%" stop-color="#001122" stop-opacity="1"></stop><stop offset="82%" stop-color="#001122" stop-opacity="1"></stop></linearGradient></defs><g transform="translate(1440, 900)"><path d="M-254.7 0C-258.5 -25 -262.2 -50.1 -246 -65.9C-229.8 -81.8 -193.7 -88.5 -176.7 -102C-159.6 -115.5 -161.7 -135.8 -154.1 -154.1C-146.6 -172.5 -129.4 -188.9 -110 -190.5C-90.6 -192.2 -68.9 -179.1 -50.2 -187.4C-31.5 -195.6 -15.8 -225.2 0 -254.7L0 0Z" fill="#0066FF"></path></g><g transform="translate(0, 0)"><path d="M254.7 0C257.9 25 261.1 50.1 246 65.9C231 81.8 197.8 88.4 186.2 107.5C174.6 126.6 184.7 158.2 173.2 173.2C161.8 188.2 128.8 186.6 104 180.1C79.2 173.6 62.6 162.3 46.6 173.9C30.6 185.5 15.3 220.1 0 254.7L0 0Z" fill="#0066FF"></path></g></svg>